<svg id="图层_1" data-name="图层 1" xmlns="http://www.w3.org/2000/svg" viewBox="0 0 152.5 189.5"><title>地址-2</title><path d="M98,6A58.15,58.15,0,0,0,40,64.5C40,96.5,71.5,137,98.5,170,125,136.5,157,97,157,64.5A59,59,0,0,0,98,6Zm0,97a38.5,38.5,0,1,1,38.5-38.5C137,86,119.5,103,98,103Z" transform="translate(-23 -6)"/><path d="M76,64.5A21.94,21.94,0,0,0,82.5,80,22.86,22.86,0,0,0,98,86.5,21.94,21.94,0,0,0,113.5,80,22.86,22.86,0,0,0,120,64.5,21.94,21.94,0,0,0,113.5,49,22.86,22.86,0,0,0,98,42.5a22.2,22.2,0,0,0-22,22Z" transform="translate(-23 -6)"/><path d="M98.5,195.5C61,195.5,23,183.5,23,161c0-12.5,12.5-23,34.5-29.5,4-1,8,1,9,5s-1,8-5,9c-16.5,4.5-24,11-24,15.5,0,8,24,20,61.5,20s61.5-12,61.5-20c0-4.5-9-11.5-25.5-16-4-1-6-5-5-9s5-6,9-5c23,6,36.5,17,36.5,30-1.5,22.5-39.5,34.5-77,34.5Z" transform="translate(-23 -6)"/></svg>