<svg id="图层_1" data-name="图层 1" xmlns="http://www.w3.org/2000/svg" viewBox="0 0 123.01 174.5"><defs><style>.cls-1{fill:#1c61a0;}</style></defs><title>地址 (1)</title><path class="cls-1" d="M100,12.75c-33.91,0-61.5,27-61.5,60.21,0,15.16,6.06,36.13,16.62,57.55S79.5,171.39,93.24,184.3a9.23,9.23,0,0,0,13.46.07C135.91,157,161.5,105,161.5,73c0-33.2-27.59-60.21-61.51-60.21Zm1.07,165.79-.22.22a1.13,1.13,0,0,1-1.7,0l-.25-.26C71.53,152.85,46.6,102.55,46.6,73c0-28.73,24-52.11,53.4-52.11S153.4,44.23,153.4,73c0,29.67-24.94,80-52.33,105.58Z" transform="translate(-38.5 -12.75)"/><path class="cls-1" d="M100.2,35.47a32.26,32.26,0,1,0,32.26,32.27A32.3,32.3,0,0,0,100.2,35.47Zm0,56.42a24.16,24.16,0,1,1,24.16-24.16A24.19,24.19,0,0,1,100.2,91.9Z" transform="translate(-38.5 -12.75)"/></svg>