<svg id="图层_1" data-name="图层 1" xmlns="http://www.w3.org/2000/svg" viewBox="0 0 174.98 133.63"><defs><style>.cls-1{fill:#1c61a0;}</style></defs><title>信息准（登录）</title><path class="cls-1" d="M28.42,33.14a15.87,15.87,0,0,0-15.72,16V150.68a15.87,15.87,0,0,0,15.72,16h5.66c.57,0,1.17,0,1.78,0s1.19,0,1.6,0l.86,0,1.05,0,62.81.1.94,0c.51,0,1.23,0,2.05-.08H106c.68,0,1.25,0,2,0h64a15.87,15.87,0,0,0,15.72-16V49.12a15.87,15.87,0,0,0-15.72-16ZM107.7,155.53h-2.48l-.27,0-.16,0-67-.06h-.21l-.21,0H34.43a15,15,0,0,1-2.3-.31,35.53,35.53,0,0,1,9.2-20.62c5.1-5.64,14.41-12.38,29.84-12.38s24.86,6.74,30,12.4a35.6,35.6,0,0,1,9.36,20.49A15.54,15.54,0,0,1,107.7,155.53Zm69-4.84a4.82,4.82,0,0,1-4.79,4.84H121.52a42,42,0,0,0-3-13.73,49.44,49.44,0,0,0-9.26-14.75c-6.64-7.29-18.65-16-38.07-16s-31.33,8.69-37.91,16A49.26,49.26,0,0,0,23.65,143V49.12a4.82,4.82,0,0,1,4.79-4.84H172a4.82,4.82,0,0,1,4.79,4.84V150.68ZM71.48,55.49a26.39,26.39,0,1,0,26,26.39A26.22,26.22,0,0,0,71.48,55.49Zm0,41.64a15.26,15.26,0,1,1,15-15.25A15.15,15.15,0,0,1,71.48,97.13Zm91.37-24.65c1.5,0,2.75-3.16,2.79-5.57s-1.27-5.59-2.79-5.57H114c-1.5,0-2.73,3.18-2.77,5.57s1.27,5.57,2.77,5.57h48.85Zm0,16.33c1.5,0,2.75-3.16,2.79-5.57s-1.27-5.59-2.79-5.57H114c-1.5,0-2.73,3.18-2.77,5.57s1.27,5.57,2.77,5.57h48.85Zm-29.41,22.29c1.5,0,2.75-3.16,2.79-5.57S135,99.94,133.44,100H114c-1.5,0-2.73,3.18-2.77,5.57s1.27,5.57,2.77,5.57Z" transform="translate(-12.7 -33.14)"/></svg>