<svg id="图层_1" data-name="图层 1" xmlns="http://www.w3.org/2000/svg" viewBox="0 0 199.99 194.31"><defs><style>.cls-1{fill:#9e9e9e;}</style></defs><title>更多</title><path d="M102.83,194.31a3.48,3.48,0,0,1-2.47-5.95l91.21-91.21L100.37,6A3.49,3.49,0,0,1,105.3,1L199,94.69a3.5,3.5,0,0,1,0,4.94L105.3,193.29a3.5,3.5,0,0,1-2.47,1Z" transform="translate(0 0)"/><path d="M3.49,194.31A3.48,3.48,0,0,1,1,188.36L92.23,97.16,1,6A3.49,3.49,0,1,1,6,1L99.63,94.69a3.5,3.5,0,0,1,0,4.94L6,193.29A3.5,3.5,0,0,1,3.49,194.31Z" transform="translate(0 0)"/></svg>