<svg id="图层_1" data-name="图层 1" xmlns="http://www.w3.org/2000/svg" viewBox="0 0 192.8 144.4"><defs><style>.cls-1{fill:#9e9e9e;}.cls-2{fill:#fff;}</style></defs><title>暂无消息-2</title><path class="cls-1" d="M98.1,43.3a4.8,4.8,0,0,1-4.8,4.8H73.9a4.8,4.8,0,1,1,0-9.6H93.2A4.7,4.7,0,0,1,98.1,43.3Zm26.4,0c0,2.7-1.5,4.8-3.4,4.8H107.5c-1.9,0-3.4-2.2-3.4-4.8s1.5-4.8,3.4-4.8H121C122.9,38.4,124.5,40.6,124.5,43.3ZM154,62.9a5.59,5.59,0,0,1-5.6,5.6H92.5a5.6,5.6,0,0,1,0-11.2h55.9A5.53,5.53,0,0,1,154,62.9ZM169,83a5.38,5.38,0,0,1-5.4,5.4H79.3a5.4,5.4,0,0,1,0-10.8h84.4A5.49,5.49,0,0,1,169,83Zm4.9,19.1a5.59,5.59,0,0,1-5.6,5.6H152.7a5.6,5.6,0,1,1,0-11.2h15.6a5.59,5.59,0,0,1,5.6,5.6Zm-31.2,0c0,3.1-3.8,5.6-8.4,5.6H26.4c-4.6,0-8.4-2.5-8.4-5.6s3.8-5.6,8.4-5.6H134.3C139,96.5,142.7,99,142.7,102.1ZM50.8,113.7a5.85,5.85,0,0,1-5.9,5.9H36.8a6,6,0,0,1,0-11.9h8.1a6,6,0,0,1,5.9,6Z" transform="translate(-3.6 -28.4)"/><path class="cls-1" d="M108.9,125.2a6.38,6.38,0,0,1-6.4,6.4H10a6.4,6.4,0,0,1,0-12.8h92.4a6.47,6.47,0,0,1,6.5,6.4ZM191.6,148a6.44,6.44,0,0,1-6.4,6.4h-77a6.4,6.4,0,1,1,0-12.8h77a6.38,6.38,0,0,1,6.4,6.4Zm-64.5,11a4.59,4.59,0,0,1-4.6,4.6h-6.3a4.6,4.6,0,0,1,0-9.2h6.3A4.59,4.59,0,0,1,127.1,159Z" transform="translate(-3.6 -28.4)"/><path class="cls-1" d="M178.7,168.2a4.65,4.65,0,0,1-4.6,4.6H88.2a4.6,4.6,0,0,1,0-9.2h85.9a4.59,4.59,0,0,1,4.6,4.6Zm17.7,0a4.65,4.65,0,0,1-4.6,4.6h-3.7a4.6,4.6,0,0,1,0-9.2h3.7A4.53,4.53,0,0,1,196.4,168.2Z" transform="translate(-3.6 -28.4)"/><path class="cls-1" d="M20.7,161.7H165.2v2H20.7Z" transform="translate(-3.6 -28.4)"/><path class="cls-2" d="M57.4,75,42.2,85.3V157s0,4.5,5.2,5.2,104.8,0,104.8,0,5.2-2.1,5.2-5.5V84l-15.2-9Z" transform="translate(-3.6 -28.4)"/><path class="cls-1" d="M76.9,163c-18.1,0-28-.1-29.5-.3a6,6,0,0,1-5.6-5.7V85L57.3,74.4h85.1l.1.1,15.4,9.1v73c0,3.7-5.3,5.9-5.5,6h-.2c-.4.1-44.6.4-75.3.4ZM42.7,85.6v71.5c0,.2.1,4.1,4.7,4.7,1.5.2,11.4.3,29.4.3,30,0,72.9-.3,75.2-.3.6-.3,4.8-2.2,4.8-5V84.2L142,75.4H57.5Z" transform="translate(-3.6 -28.4)"/><path class="cls-2" d="M121.6,70.6v43.7L98.4,131,58,99.7V56.6s-.4-4.9,3.5-5.3c2.1-.2,16-.1,28.2,0H90l19.1.2,12.5,19.1Z" transform="translate(-3.6 -28.4)"/><path class="cls-1" d="M98.4,131.6,57.4,100V56.6a6.93,6.93,0,0,1,1.2-4.4,4,4,0,0,1,2.7-1.4c.8-.1,3.2-.1,7.2-.1,4.7,0,11.4,0,21,.1H90l19.2.2h.3l12.7,19.3v44.2L98.4,131.6ZM58.5,99.5l40,30.9,22.7-16.3V70.7L108.9,52.1c-1.6,0-9.7-.1-18.9-.2h-.3c-9.6-.1-16.3-.1-21-.1-4,0-6.4,0-7.1.1a3,3,0,0,0-2.1,1,5.7,5.7,0,0,0-1,3.7V99.5Z" transform="translate(-3.6 -28.4)"/><path class="cls-1" d="M61.1,65.5h48.8V75.8H61.1Zm0,15H96.7v3.7H61.1Zm0,9h47.2v3H61.1Z" transform="translate(-3.6 -28.4)"/><path class="cls-2" d="M79,70.6l-.2,45.3,20,15.5,43.8-32V56.6s.5-4.9-3.5-5.3c-2.1-.2-16-.1-28.2,0h-.3l-19.1.2L79,70.6Z" transform="translate(-3.6 -28.4)"/><path class="cls-1" d="M98.9,132,78.4,116.1l.2-45.7.1-.1L91.4,51.1h.3l19.1-.2h.3c9.6-.1,16.3-.1,21-.1,4.1,0,6.4,0,7.2.1a3.78,3.78,0,0,1,2.7,1.4,7.17,7.17,0,0,1,1.2,4.5v43l-.2.2L98.9,132ZM79.4,115.6l19.5,15.1,43.3-31.6V56.6a5.84,5.84,0,0,0-1-3.8,3,3,0,0,0-2.1-1c-.8-.1-3.2-.1-7.1-.1-4.7,0-11.4,0-21,.1h-.3c-9.2.1-17.3.2-18.9.2L79.5,70.7l-.1,44.9Z" transform="translate(-3.6 -28.4)"/><path class="cls-1" d="M90.8,65.5h48.8V75.8H90.8Zm13.2,15h35.6v3.7H104Zm-11.6,9h47.2v3H92.4Z" transform="translate(-3.6 -28.4)"/><path class="cls-1" d="M98.9,132,67.6,107.8V63.3l.1-.1L80.4,44.1h.3l19.1-.2h.3l19.2.2h.3l12.7,19.3v44.2C132.4,107.5,98.9,132,98.9,132ZM68.6,107.3l30.3,23.4L131.3,107V63.6L119,45.1c-1.6,0-9.7-.1-18.9-.2h-.3c-9.1,0-17.3.1-18.8.2L68.6,63.7v43.6Zm101.1,54.4h6.6v2h-6.6Z" transform="translate(-3.6 -28.4)"/><path class="cls-1" d="M98.9,132l-.3-.2L58.2,100.6l-7.1-5.4.6-.8,7.1,5.4,40.1,31,49.8-36.3.6.8Z" transform="translate(-3.6 -28.4)"/><path class="cls-2" d="M131.9,63.5v43.7L99,131.3l-.5-.4L68.2,107.4v-58s-.5-4.9,3.5-5.3c2.1-.2,16-.1,28.2,0h.3l19.1.2,12.6,19.2Z" transform="translate(-3.6 -28.4)"/><path class="cls-1" d="M98.9,132,67.7,107.8V49.6a6.93,6.93,0,0,1,1.2-4.4,4,4,0,0,1,2.7-1.4c.8-.1,3.2-.1,7.2-.1,6,0,14.9.1,21,.1h.3l19.2.2h.3l12.7,19.3v44.2ZM68.7,107.3,99,130.7,131.4,107V63.7L119,45.1c-1.6,0-9.7-.1-18.9-.2h-.3c-6.1-.1-15-.1-21-.1-4,0-6.4,0-7.1.1a3,3,0,0,0-2.1,1,5.7,5.7,0,0,0-1,3.7C68.7,49.5,68.7,107.3,68.7,107.3Z" transform="translate(-3.6 -28.4)"/><path class="cls-1" d="M71.3,58.5h48.8V68.8H71.3Zm0,14.9h35.6v3.7H71.3Zm0,9h47.2v3H71.3Zm0,9.3h31V95h-31Zm0,9.1h47.9v3.3H71.3Z" transform="translate(-3.6 -28.4)"/><path class="cls-1" d="M118.2,57.2l12.7,5.6L119.2,45h0c-5.8,9.9-3.1,5.2-4.2,7.1C113.1,55.4,118.2,57.2,118.2,57.2Z" transform="translate(-3.6 -28.4)"/><path class="cls-1" d="M132.3,64,118,57.7c-.1,0-3-1.1-3.8-3.2a3.05,3.05,0,0,1,.3-2.6c.2-.3.3-.4.3-.6l1.8-3,.1-.1,2.5-4.2,13.1,20ZM115.7,51.9h0c0,.1-.1.2-.3.5a2.17,2.17,0,0,0-.3,1.7c.6,1.6,3.2,2.6,3.2,2.6l11.2,5L119.2,46l-1.6,2.7c-.6,1-1.1,1.9-1.7,2.9l-.2.3Z" transform="translate(-3.6 -28.4)"/><path class="cls-1" d="M157,36.4l-6.7,10.8v.1h6.8v1.8h-9.6V47.9L154.3,37v-.1h-6.2V35.1H157v1.3Z" transform="translate(-3.6 -28.4)"/><path class="cls-1" d="M168.4,29.3l-4.3,6.9h4.3v1.1h-6.1v-.8l4.3-7h-4V28.4h5.7l.1.9Z" transform="translate(-3.6 -28.4)"/><path class="cls-1" d="M98.8,146.3,77,130.7l1.2-1.6,20.6,14.8,19.1-14.7,1.2,1.6Z" transform="translate(-3.6 -28.4)"/></svg>