<svg id="图层_1" data-name="图层 1" xmlns="http://www.w3.org/2000/svg" viewBox="0 0 168.23 178.38"><title>修改密码</title><style>.t {fill:#1c61a0}</style><path class='t' d="M66.78,58.43V77a13.52,13.52,0,0,0,13.5,13.5H93.8v36.12a5,5,0,0,0,0,2.63v23.19a5,5,0,0,0,10,0V132.9h17a5,5,0,0,0,0-10h-17v-8.67h17a5,5,0,0,0,0-10h-17V90.47h13.52A13.52,13.52,0,0,0,130.82,77V58.42a13.52,13.52,0,0,0-13.5-13.5,5,5,0,0,0,0,10,3.51,3.51,0,0,1,3.51,3.51V77a3.51,3.51,0,0,1-3.51,3.51h-37A3.51,3.51,0,0,1,76.78,77V58.42a3.51,3.51,0,0,1,3.51-3.51H91c2.25.14,11.44.37,16.45-4.45a5,5,0,0,0-6.93-7.2c-1.3,1.24-5.8,1.88-9,1.67H80.29A13.52,13.52,0,0,0,66.78,58.43Z" transform="translate(-15.88 -10.81)"/><path class='t' d="M177.75,37.63c-2.41-3.67-5.27-4.44-7.25-4.44-13.5,0-54.06-15.87-68.55-22a5,5,0,0,0-3.88,9.21c.13.06,13.55,5.71,28.93,11.28,20.1,7.28,34.36,11.13,42.42,11.46.58.9,1.88,3.51,3,10a138.16,138.16,0,0,1,1.69,22.78c0,19.54-3.07,38.28-8.2,50.12-12.06,27.84-55.51,48-65.92,52.54-10.42-4.51-53.86-24.7-65.92-52.54-5.13-11.84-8.2-30.58-8.2-50.12a138.19,138.19,0,0,1,1.69-22.78c1.13-6.45,2.42-9.06,3-10,11.22-.13,36.28-2.5,50.33-19.8a5,5,0,0,0-7.76-6.3C61.33,31.62,38.68,33.19,29.49,33.19c-2,0-4.83.77-7.25,4.44-5,7.57-6.54,26-6.35,40.73.26,20.22,3.54,39.05,9,51.67,3.62,8.36,9.83,16.68,18.44,24.72a155.62,155.62,0,0,0,24.48,18.31,225.15,225.15,0,0,0,28.35,14.77,5,5,0,0,0,3.41,1.35l.41,0,.41,0a5,5,0,0,0,3.41-1.35,225.18,225.18,0,0,0,28.35-14.77,155.64,155.64,0,0,0,24.48-18.31c8.62-8,14.82-16.37,18.44-24.72,5.47-12.62,8.75-31.45,9-51.67C184.29,63.63,182.72,45.2,177.75,37.63Z" transform="translate(-15.88 -10.81)"/></svg>