<svg id="图层_1" data-name="图层 1" xmlns="http://www.w3.org/2000/svg" viewBox="0 0 190.19 197.03"><title>个人资料</title><style>.t {fill:#fff}</style><path class='t' d="M185,165.91H105.47a5.19,5.19,0,1,1,0-10.37H185a5.19,5.19,0,1,1,0,10.37Zm0-27.66H105.47a5.19,5.19,0,0,1,0-10.38H185a5.19,5.19,0,1,1,0,10.38h0Zm-98.55-22.9c-.74,0-1.47,0-2.2,0A76.87,76.87,0,0,0,9.61,192.18a4.8,4.8,0,1,1-9.61.06s0,0,0-.06a86.64,86.64,0,0,1,61-82.74,57.61,57.61,0,1,1,25.4,5.91Zm0-105.74a48.07,48.07,0,0,0-2.19,96.08l2.18,0a4.82,4.82,0,0,1,.79.07,48.06,48.06,0,0,0-.78-96.12Zm19,177H185A5.19,5.19,0,1,1,185,197H105.47a5.19,5.19,0,0,1,0-10.37Z" transform="translate(0)"/></svg>