<svg id="图层_1" data-name="图层 1" xmlns="http://www.w3.org/2000/svg" viewBox="0 0 159.16 199.85"><title>联系我们</title><style type="text/css">
	.st0{fill:#5d616e;}
</style><path class="st0" d="M147.63,139.36a139.78,139.78,0,0,1,21.59,17.38c3.44,3.56,9.2,9.51,9.06,16.41-.13,4.7-2.78,9.44-8.12,14.41A48.09,48.09,0,0,1,137.84,200a54.79,54.79,0,0,1-15.91-2.45,73,73,0,0,1-17-7.83c-22.28-13.15-39.45-30.08-55.79-54.93C21.1,92.1,20.3,55.54,20.42,48.65,20.47,16.85,47,4.34,50,3A26.94,26.94,0,0,1,61.11.15,15.76,15.76,0,0,1,65.66.8c2.91.89,7,3.19,9.69,9.09,3.73,8,7.23,19.49,9.64,31.51,2.54,12.47-4.46,16-11.24,19.36l-.26.13L59.41,66.75A4.3,4.3,0,0,0,57,72.06a200,200,0,0,0,52.11,80.79A4.33,4.33,0,0,0,112,154l.35,0a4.26,4.26,0,0,0,3-1.64,81.64,81.64,0,0,1,7.55-8.51c5.58-5.31,10.65-7.89,15.44-7.89a13.31,13.31,0,0,1,3.88.59,23.85,23.85,0,0,1,5.36,2.85ZM114.79,76.15a9,9,0,0,1-5.73-3.87,8.81,8.81,0,0,1-1.31-6.79,9,9,0,0,1,9.18-7.19,8.62,8.62,0,0,1,1.49.17,38.83,38.83,0,0,1,30.15,45.82,8.77,8.77,0,0,1-3.89,5.7,9,9,0,0,1-5.29,1.5,10.42,10.42,0,0,1-1.48-.2,9,9,0,0,1-7-10.66,20.75,20.75,0,0,0-16.1-24.49Zm9.36-28.26A9,9,0,0,1,126.3,30a9.89,9.89,0,0,1,1.48.17,64.94,64.94,0,0,1,50.44,76.62,8.76,8.76,0,0,1-3.89,5.71A8.93,8.93,0,0,1,169,114a8.82,8.82,0,0,1-1.5-.2,9,9,0,0,1-7-10.65,46.88,46.88,0,0,0-36.39-55.3Z" transform="translate(-20.42 -0.15)"/></svg>