<svg id="图层_1" data-name="图层 1" xmlns="http://www.w3.org/2000/svg" viewBox="0 0 175 175"><title>正确</title><style>.t {fill:#1c61a0}</style><path class='t' d="M100,187.5A87.5,87.5,0,1,1,187.5,100,87.6,87.6,0,0,1,100,187.5Zm0-162.44A74.94,74.94,0,1,0,174.94,100,75,75,0,0,0,100,25.06Zm42,51.74a6.24,6.24,0,0,0-8.84.05L87.59,122.91,67.42,102.18a6.25,6.25,0,0,0-9,8.71l24.61,25.29.05,0,0,0a6.11,6.11,0,0,0,1.34.89,7.62,7.62,0,0,0,.69.45,6.2,6.2,0,0,0,2.36.47,6.3,6.3,0,0,0,2.34-.46,7.44,7.44,0,0,0,.66-.43,6,6,0,0,0,1.36-.89s0,0,0,0l.05,0,50-50.59A6.26,6.26,0,0,0,142,76.79Z" transform="translate(-12.5 -12.5)"/></svg>