<svg id="图层_1" data-name="图层 1" xmlns="http://www.w3.org/2000/svg" viewBox="0 0 128.08 162.1"><title>嘉宾</title><path d="M97.3,96.5A38.8,38.8,0,1,0,58.9,57.7C58.9,79.1,76.2,96.5,97.3,96.5Zm0-70.3A31.6,31.6,0,1,1,66.1,57.8C66.1,40.4,80.2,26.2,97.3,26.2Zm9,147.6H61.7c-6,0-11.2-2.3-14.6-6.4a19,19,0,0,1-3.5-15.9L47,134.3c2.6-13.1,15.4-23.7,28.6-23.7h43.6c9.1,0,18.6,5.3,24.3,13.6a3.59,3.59,0,1,0,5.9-4.1c-7-10.3-18.6-16.7-30.2-16.7H75.6c-16.7,0-32.4,13-35.6,29.5l-3.4,17.2c-1.6,8.2.1,16,5,21.9s11.9,9,20.1,9h44.6a3.59,3.59,0,0,0,3.6-3.6,3.65,3.65,0,0,0-3.6-3.6Z" transform="translate(-36.02 -18.9)"/><path d="M115.9,142.2a3.59,3.59,0,0,0,3.6,3.6h41a3.6,3.6,0,0,0,0-7.2h-41A3.59,3.59,0,0,0,115.9,142.2Zm44.6,13h-41a3.6,3.6,0,0,0,0,7.2h41a3.6,3.6,0,0,0,0-7.2Z" transform="translate(-36.02 -18.9)"/></svg>