<svg id="图层_1" data-name="图层 1" xmlns="http://www.w3.org/2000/svg" viewBox="0 0 172.27 172.27"><title>报错</title><path d="M99.92,106.39a4.11,4.11,0,0,0,4.11-4.11V55.21a4.11,4.11,0,0,0-8.22,0v47.07A4.11,4.11,0,0,0,99.92,106.39Z" transform="translate(-13.39 -14.28)"/><path d="M93.76,122.11a6.16,6.16,0,1,0,12.33,0h0a6.16,6.16,0,1,0-12.33,0Z" transform="translate(-13.39 -14.28)"/><path d="M99.52,14.28a86.13,86.13,0,1,0,86.13,86.13A86.24,86.24,0,0,0,99.52,14.28Zm0,163.2a77.07,77.07,0,1,1,77.07-77.07A77.15,77.15,0,0,1,99.52,177.48Z" transform="translate(-13.39 -14.28)"/></svg>