<svg id="图层_1" data-name="图层 1" xmlns="http://www.w3.org/2000/svg" viewBox="0 0 174.79 174.78"><defs><style>.cls-1{fill:#5d5d5d;}</style></defs><title>提示</title><path class="cls-1" d="M98.82,128.81a5.68,5.68,0,1,1-4,1.67,5.75,5.75,0,0,1,4-1.67ZM81.34,86c-.44.88-1.31,1.31-2.62,1.75a4,4,0,0,1-4.81-3.05,20.6,20.6,0,0,1,.88-9.18c3.5-9.18,13.54-15.73,24.47-15.73,15.74,0,26.23,8.74,26.23,21.41,0,10.92-8.31,15.29-14.43,18.35-5.68,2.62-8.3,4.37-8.74,7.86v8.3a4.12,4.12,0,0,1-4.37,4.37,4.37,4.37,0,0,1-4.37-4.37v-8.3c0-9.18,7.86-13.11,13.11-15.73,6.12-3.05,9.61-5.24,9.61-10.92,0-7.43-7-12.67-17.48-12.67-8.73,0-14.86,5.24-16.6,10.49-.44,1.31-.88,3.5-.44,4.37S81.78,85.12,81.34,86Zm90.56,63.18v0a5,5,0,0,1-4.34,2.6,5.08,5.08,0,0,1-5.09-5.09,5,5,0,0,1,1.24-3.23l-.11-.08a77.16,77.16,0,1,0-26.89,24.41l.06.12a4.93,4.93,0,0,1,2.75-.92,5.06,5.06,0,0,1,1.77,9.82l0,0a87.54,87.54,0,1,1,30.61-27.67Z" transform="translate(-12.3 -12.58)"/></svg>