<svg id="图层_1" data-name="图层 1" xmlns="http://www.w3.org/2000/svg" viewBox="0 0 185.83 146.4"><title>显示</title><path d="M192.2,99.1v-.2a5.76,5.76,0,0,0-.5-2.9,93.66,93.66,0,0,0-14.5-24l11.2-13.4a6.31,6.31,0,0,0-4.8-10.3,6.55,6.55,0,0,0-4.8,2.2L168.5,62.8a93.62,93.62,0,0,0-22.2-15.1l6.1-16.8a6.26,6.26,0,0,0-3.7-8,5.22,5.22,0,0,0-2.1-.4,6.23,6.23,0,0,0-5.8,4.1l-5.9,16.3a108.49,108.49,0,0,0-28.2-5.5V18.5a6.2,6.2,0,0,0-12.4,0V37.4a103.42,103.42,0,0,0-26.8,5.1L61.7,26.6a6.23,6.23,0,0,0-5.8-4.1,5.22,5.22,0,0,0-2.1.4,6.23,6.23,0,0,0-3.7,8L56,47.2A98.56,98.56,0,0,0,38.6,57.8c-1.8,1.3-3.6,2.7-5.4,4.1L23.7,50.5a6.06,6.06,0,0,0-4.8-2.2,6.23,6.23,0,0,0-4,1.5,6.3,6.3,0,0,0-.8,8.8l10,11.9A84.28,84.28,0,0,0,6.4,98.9c12.8,34.7,49.8,59.8,92.9,59.8,41.8,0,77.9-23.6,91.7-56.7a5,5,0,0,0,1.2-2.9ZM99.3,147.9c-35.2,0-65.7-18.8-79.3-45.7a3.29,3.29,0,0,0,.7-1.3C31.5,74.4,54.8,56.4,83.6,51.3A100.78,100.78,0,0,1,99.3,50a43.5,43.5,0,1,0,43.5,43.5A43.53,43.53,0,0,0,99.3,50c24.7,0,46.9,9.2,62.7,23.8a80.27,80.27,0,0,1,17.8,25.9c-12.9,28.3-44.3,48.2-80.5,48.2ZM83,66.3a13.55,13.55,0,0,0-2,.2,31.94,31.94,0,0,1,18.3-5.6A32.6,32.6,0,1,1,66.7,93.5a28.15,28.15,0,0,1,.7-6.5A16.3,16.3,0,1,0,83,66.3Z" transform="translate(-6.4 -12.3)"/></svg>