<svg id="图层_1" data-name="图层 1" xmlns="http://www.w3.org/2000/svg" viewBox="0 0 161.48 77.24"><title>隐藏</title><path d="M179.95,69.36a87.31,87.31,0,0,1-19.61,22,5.22,5.22,0,0,1,.27.49l9.83,25.27a5.25,5.25,0,0,1-2.86,6.75,4.94,4.94,0,0,1-1.88.36A5.07,5.07,0,0,1,161,120.9l-9.12-23.45A96.13,96.13,0,0,1,128.1,108.3L133,132.37a5.25,5.25,0,0,1-.73,3.9,5.06,5.06,0,0,1-3.23,2.24,4.93,4.93,0,0,1-1,.11,5.14,5.14,0,0,1-5-4.15l-4.8-23.72a98,98,0,0,1-18.19,1.7,97.88,97.88,0,0,1-19.51-2l-4.08,23.85a5.13,5.13,0,0,1-5,4.31,5.56,5.56,0,0,1-.89-.08,5,5,0,0,1-3.28-2.13,5.24,5.24,0,0,1-.85-3.88l4.21-24.61a95.63,95.63,0,0,1-24.74-12l-7.39,20.64A5.1,5.1,0,0,1,33.67,120a4.89,4.89,0,0,1-1.74-.32A5.09,5.09,0,0,1,29.05,117a5.24,5.24,0,0,1-.16-4l8.44-23.58a87.1,87.1,0,0,1-17.28-20,5.22,5.22,0,0,1-.67-3.92,5.14,5.14,0,0,1,2.25-3.25,5,5,0,0,1,2.72-.81,5,5,0,0,1,4.31,2.43c14.61,23.59,42,38.25,71.34,38.25s56.72-14.66,71.34-38.25a5,5,0,0,1,4.31-2.43,5,5,0,0,1,2.72.81,5.14,5.14,0,0,1,2.25,3.25,5.23,5.23,0,0,1-.66,3.92Z" transform="translate(-19.26 -61.38)"/></svg>